<svg id="Слой_1" data-name="Слой 1" xmlns="http://www.w3.org/2000/svg" viewBox="0 0 398.22 209.6"><defs><style>.cls-1{fill:#00b7ff;}.cls-2{fill:#fff;}</style></defs><path class="cls-1" d="M552.21,480.19a37.43,37.43,0,0,1,13.23-12.32,43,43,0,0,1,21.43-5.32,45.83,45.83,0,0,1,20.07,4.26,43.07,43.07,0,0,1,15.46,12.74l20.65-20.65a65.47,65.47,0,0,0-23.84-17.58,82.53,82.53,0,0,0-50.64-4.19,72.82,72.82,0,0,0-33.17,18,67.77,67.77,0,0,0-8.85,10.35l-.14.22-2.4,3.76-27.42,42.86L446.91,435H424.6V575.52h31.06v-78l30.48,47.73h20.69Z" transform="translate(-340.42 -434.95)"/><path class="cls-2" d="M521.87,537.24a68.45,68.45,0,0,0,13,17.91,70.1,70.1,0,0,0,22.69,15,72.16,72.16,0,0,0,27.9,5.39q20.28,0,35.83-8.48a59.51,59.51,0,0,0,24.33-25.21q8.77-16.7,8.79-41.23v-4.43h-49.1L579.6,521.86l42.32.62a36.74,36.74,0,0,1-2.91,7.76,31.07,31.07,0,0,1-12.93,13.15q-8.42,4.51-20.37,4.53a39.85,39.85,0,0,1-20.85-5.41,38.21,38.21,0,0,1-14.3-15.06,46.34,46.34,0,0,1-5.22-22.39c0-.5,0-1,0-1.5Z" transform="translate(-340.42 -434.95)"/><path class="cls-2" d="M633.51,617l12.8.18a12,12,0,0,1-.88,2.36,9.47,9.47,0,0,1-3.91,4,12.89,12.89,0,0,1-6.16,1.37,12.09,12.09,0,0,1-6.31-1.64,11.48,11.48,0,0,1-4.32-4.55,14,14,0,0,1-1.58-6.77,13.7,13.7,0,0,1,1.61-6.75,11.46,11.46,0,0,1,4.46-4.49,13,13,0,0,1,6.49-1.61,13.86,13.86,0,0,1,6.07,1.29,12.94,12.94,0,0,1,4.67,3.85L652.7,598a19.67,19.67,0,0,0-7.21-5.31,23.72,23.72,0,0,0-9.67-1.93,23.16,23.16,0,0,0-8.64,1.61,21.52,21.52,0,0,0-7,4.49,20.78,20.78,0,0,0-4.7,6.75,20.51,20.51,0,0,0-1.7,8.35,21,21,0,0,0,13.11,19.67,21.81,21.81,0,0,0,8.44,1.64,22.28,22.28,0,0,0,10.83-2.57,17.92,17.92,0,0,0,7.35-7.62,26.44,26.44,0,0,0,2.66-12.47v-1.34H641.3Z" transform="translate(-340.42 -434.95)"/><path class="cls-2" d="M680.55,606.57a10.22,10.22,0,0,0-2.66-1.83,11.77,11.77,0,0,0-5.17-1.11,12.83,12.83,0,0,0-7,1.92,13.75,13.75,0,0,0-4.85,5.26,17.07,17.07,0,0,0,0,15.18,13.65,13.65,0,0,0,4.85,5.25,12.75,12.75,0,0,0,7,1.93,12,12,0,0,0,5.2-1.11,10.29,10.29,0,0,0,2.63-1.8v2.33h8.75V604.21h-8.75Zm-1.4,16.64a6,6,0,0,1-4.62,1.9,6.3,6.3,0,0,1-3.27-.87,6.17,6.17,0,0,1-2.27-2.4,7.65,7.65,0,0,1,0-7,6.21,6.21,0,0,1,2.27-2.36,6.83,6.83,0,0,1,6.6,0,5.87,5.87,0,0,1,2.22,2.36,7.63,7.63,0,0,1,.79,3.51A6.84,6.84,0,0,1,679.15,623.21Z" transform="translate(-340.42 -434.95)"/><rect class="cls-2" x="355.19" y="155.24" width="8.93" height="42.39"/><polygon class="cls-2" points="388.59 169.26 382.8 186.49 377.14 169.26 367.51 169.26 378.34 195.68 371.89 209.6 381.05 209.6 386.07 197.75 398.22 169.26 388.59 169.26"/><path class="cls-1" d="M409.38,606.5a10.5,10.5,0,0,0-2.66-1.84,11.77,11.77,0,0,0-5.17-1.11,12.81,12.81,0,0,0-7,1.93,13.7,13.7,0,0,0-4.84,5.25,17.07,17.07,0,0,0,0,15.18,13.8,13.8,0,0,0,4.84,5.26,12.9,12.9,0,0,0,7,1.93,12,12,0,0,0,5.2-1.11,10.46,10.46,0,0,0,2.63-1.8v2.32h8.75V604.14h-8.75ZM408,623.14a6,6,0,0,1-4.61,1.9,6.2,6.2,0,0,1-5.55-3.27,7.2,7.2,0,0,1-.81-3.45,7.11,7.11,0,0,1,.84-3.5,6.15,6.15,0,0,1,5.58-3.21,6.34,6.34,0,0,1,3.3.85,5.81,5.81,0,0,1,2.22,2.36,7.55,7.55,0,0,1,.79,3.5A6.81,6.81,0,0,1,408,623.14Z" transform="translate(-340.42 -434.95)"/><polygon class="cls-1" points="112.1 169.19 102.12 169.19 92.95 181.88 92.95 155.17 84.02 155.17 84.02 197.56 92.95 197.56 92.95 183.89 102.18 197.56 112.69 197.56 101.72 182.56 112.1 169.19"/><path class="cls-1" d="M478.74,604.92a12.05,12.05,0,0,0-5.84-1.37,11.9,11.9,0,0,0-5.78,1.37,10.13,10.13,0,0,0-1.87,1.35V590.12h-8.93v42.39h8.93V616.34a5.19,5.19,0,0,1,.64-2.6,4.46,4.46,0,0,1,1.75-1.75,5.22,5.22,0,0,1,2.57-.61,4.71,4.71,0,0,1,3.48,1.37,4.86,4.86,0,0,1,1.37,3.59v16.17H484V614.35a11.29,11.29,0,0,0-1.37-5.63A9.72,9.72,0,0,0,478.74,604.92Z" transform="translate(-340.42 -434.95)"/><path class="cls-1" d="M529.45,604.92a12.1,12.1,0,0,0-5.81-1.37,12.48,12.48,0,0,0-6,1.43,11.44,11.44,0,0,0-3.07,2.45,10.11,10.11,0,0,0-2.94-2.54,10.69,10.69,0,0,0-5.34-1.34,12,12,0,0,0-5.67,1.32,10.25,10.25,0,0,0-2,1.37v-2.1h-8.94v28.37h8.94V615.93a4.57,4.57,0,0,1,.61-2.45,4.27,4.27,0,0,1,1.66-1.55,5.06,5.06,0,0,1,2.4-.55,4.68,4.68,0,0,1,3.24,1.19,4.34,4.34,0,0,1,1.31,3.36v16.58h8.94V615.93a4.57,4.57,0,0,1,.61-2.45,4.27,4.27,0,0,1,1.66-1.55,5.06,5.06,0,0,1,2.4-.55,4.68,4.68,0,0,1,3.24,1.19,4.34,4.34,0,0,1,1.31,3.36v16.58H535V614.94a11.86,11.86,0,0,0-1.48-6.1A10.32,10.32,0,0,0,529.45,604.92Z" transform="translate(-340.42 -434.95)"/><path class="cls-1" d="M557.62,620.48a4.92,4.92,0,0,1-1.17,3.48,4.08,4.08,0,0,1-3.15,1.25,4.66,4.66,0,0,1-2.4-.58,3.71,3.71,0,0,1-1.49-1.64,5.82,5.82,0,0,1-.49-2.51V604.14H540V620.6a12.44,12.44,0,0,0,1.69,6.51,11.83,11.83,0,0,0,4.7,4.44,14.45,14.45,0,0,0,6.92,1.6,14.3,14.3,0,0,0,6.89-1.6,12,12,0,0,0,4.67-4.44,12.53,12.53,0,0,0,1.69-6.57v-16.4h-8.93Z" transform="translate(-340.42 -434.95)"/><path class="cls-1" d="M591.66,606a12,12,0,0,0-2.13-1.3,12.31,12.31,0,0,0-5.29-1.11,13.3,13.3,0,0,0-7.15,1.93,13.57,13.57,0,0,0-4.91,5.25,17.07,17.07,0,0,0,0,15.18,13.67,13.67,0,0,0,4.91,5.26,13.39,13.39,0,0,0,7.15,1.93,11.72,11.72,0,0,0,5.32-1.2,11.17,11.17,0,0,0,2.27-1.5v2.11h8.76V590.12h-8.93Zm-.29,15.87a6.09,6.09,0,0,1-2.22,2.36,6.3,6.3,0,0,1-3.33.85,6.2,6.2,0,0,1-5.55-3.27,7.21,7.21,0,0,1-.82-3.45,7,7,0,0,1,.85-3.44,6.41,6.41,0,0,1,2.28-2.4,6.69,6.69,0,0,1,6.6,0,6.07,6.07,0,0,1,2.21,2.37,7.25,7.25,0,0,1,.79,3.47A7.33,7.33,0,0,1,591.37,621.83Z" transform="translate(-340.42 -434.95)"/><polygon class="cls-1" points="21.1 179.03 6.54 156.34 0 156.34 0 197.56 9.11 197.56 9.11 174.69 18.04 188.69 24.11 188.69 42.21 160.49 42.21 156.34 35.62 156.34 21.1 179.03"/><polygon class="cls-1" points="33.05 197.56 42.21 197.56 42.21 168.6 33.05 182.88 33.05 197.56"/></svg>